<svg xmlns="http://www.w3.org/2000/svg" width="213.987" height="70.816" viewBox="0 0 213.987 70.816">
  <g id="Group_162223" data-name="Group 162223" transform="translate(-82.893 -101.507)">
    <path id="Path_60188" data-name="Path 60188" d="M156.618,112.069c-.358,1.168-.715,2.337-1.047,3.518a12.739,12.739,0,0,0-9.175-4.739c-7.067-.785-13.892,2.605-19,7.254-5.606,5.083-9.763,12.386-9.2,20.149h.026v.4c.005-.012.005-.032.012-.045.37,3.385,1.316,6.858,3.633,9.437,3.045,3.492,7.891,4.84,12.393,4.68,4.661-.127,8.957-2.311,12.628-5.038-.295,1.169-.581,2.337-.869,3.512,4.757.005,9.513.012,14.263-.007,3.486-13.044,7.069-26.075,10.555-39.118Q163.731,112.074,156.618,112.069Zm-4.552,17.774a11.489,11.489,0,0,1-6.659,9.6,12.781,12.781,0,0,1-7.878.677,5.27,5.27,0,0,1-3.984-4.495,11.688,11.688,0,0,1,9.156-12.367,9.259,9.259,0,0,1,7.125,1.264A5.912,5.912,0,0,1,152.065,129.843Z" transform="translate(13.058 3.418)" fill="#aeb0b3"/>
    <path id="Path_60189" data-name="Path 60189" d="M178.3,110.781q8.405-.008,16.818-.005c2.915,6.716,5.8,13.448,8.738,20.149.136.922.682-.092.858-.332,3.922-6.6,7.82-13.227,11.757-19.823,5.6.016,11.206,0,16.808.005q-17.146,27.891-34.308,55.766c-5.442.01-10.884,0-16.326.005q6.048-10.112,12.094-20.225Q186.536,128.544,178.3,110.781Z" transform="translate(35.34 3.431)" fill="#aeb0b3"/>
    <g id="Group_162218" data-name="Group 162218" transform="translate(170.987 101.507)">
      <path id="Path_60190" data-name="Path 60190" d="M159.789,162.1l2.252-7.091q-7.1-1.157-10.981-4.6a10.509,10.509,0,0,1-3.884-8.11,11.7,11.7,0,0,1,.308-2.616h11.742a10.79,10.79,0,0,0-.153,1.754q0,4.966,5.2,6.534l4.831-15.223q-12.6-5.943-12.6-14.389,0-5.906,5.869-9.962t15.858-4.429l.781-2.465h6.474l-.9,2.845q14.167,2.315,14.167,10.792a12.549,12.549,0,0,1-.974,4.594H186.656a8.43,8.43,0,0,0,.718-3.137q0-3.437-5.017-5.192l-4.5,14.234q7.478,3.4,11.088,6.836a10.491,10.491,0,0,1,3.612,7.77q0,6.537-6.3,11.188t-17.928,4.314l-2.009,6.35Zm12.463-39.6,3.825-11.725q-7.674,1.344-7.673,5.975Q168.4,119.7,172.252,122.5Zm2.434,13.145-4.1,12.856a12.476,12.476,0,0,0,6.678-2.467q2.676-2.093,2.678-4.559Q179.94,138.115,174.686,135.648Z" transform="translate(-147.176 -101.507)" fill="#0b254d"/>
    </g>
    <g id="Group_162219" data-name="Group 162219" transform="translate(270.051 110.172)">
      <path id="Path_60191" data-name="Path 60191" d="M220.828,108.322h-1.364v-.492h3.318v.492h-1.369v3.989h-.585Z" transform="translate(-219.464 -107.83)" fill="#0b254d"/>
      <path id="Path_60192" data-name="Path 60192" d="M226.058,110.343c-.033-.625-.073-1.376-.066-1.935h-.021c-.152.525-.338,1.084-.565,1.7l-.792,2.175h-.439l-.725-2.135c-.212-.632-.392-1.21-.518-1.742h-.014c-.012.559-.047,1.31-.086,1.982l-.119,1.921h-.552l.312-4.481h.739l.765,2.168c.186.551.338,1.043.452,1.509h.019c.114-.452.273-.944.473-1.509l.8-2.168h.739l.278,4.481h-.565Z" transform="translate(-218.465 -107.83)" fill="#0b254d"/>
    </g>
    <g id="Group_162220" data-name="Group 162220" transform="translate(83.153 103.94)">
      <path id="Path_60193" data-name="Path 60193" d="M125.75,149.71a37.391,37.391,0,0,1-14.854,3.048c-7.532,0-13.571-2.219-17.031-6.371-2.707-3-3.889-7.138-3.293-12.283l-5.905.037.958-3.5,5.454-.041.3-1.073c.322-1.143.718-2.217,1.095-3.219l-5.675.051.978-3.57,6.378-.063a31.793,31.793,0,0,1,11.447-12.2,40.263,40.263,0,0,1,21.295-6.249,30.258,30.258,0,0,1,12.384,2.117l-3.526,4.806a24.144,24.144,0,0,0-10.34-1.876,26.434,26.434,0,0,0-14.141,4.13,23.9,23.9,0,0,0-8.52,9.182l26.96-.266-1.168,3.617-27.7.244c-.366.932-.774,2.009-1.066,3.012L99.4,130.54l27.745-.208L126,133.877l-26.956.171c-.452,4.155.534,7.232,2.442,9.376,2.637,2.793,6.906,4.15,11.96,4.139a36.336,36.336,0,0,0,12.2-2.413Z" transform="translate(-82.497 -102.913)" fill="#0b254d"/>
      <path id="Path_60194" data-name="Path 60194" d="M111.056,154.491c-8.07,0-14.514-2.431-18.194-6.834-2.731-3.031-3.958-7-3.645-11.823l-6.134.037,1.684-6.2,5.465-.044c.158-.544.33-1.068.51-1.583l-5.545.045,1.7-6.267,6.707-.069a33.763,33.763,0,0,1,11.525-11.788,43.326,43.326,0,0,1,22.778-6.684,32.283,32.283,0,0,1,13.234,2.261l1.174.511-5.571,7.581-1.74-.878a22.146,22.146,0,0,0-9.433-1.7,23.649,23.649,0,0,0-12.65,3.681l-.073.045a21.2,21.2,0,0,0-6.833,6.84l26.553-.274-2.064,6.359-27.777.232c-.195.529-.382,1.07-.536,1.59l27.793-.219-2.041,6.286-26.576.158a10.015,10.015,0,0,0,2.289,7.1c2.306,2.432,6.037,3.714,10.8,3.7a34.284,34.284,0,0,0,11.287-2.238l2.282-.876.143,7.208-1.222.55A39.877,39.877,0,0,1,111.056,154.491ZM87.429,133.146l5.7-.038-.138,1.185c-.566,4.806.459,8.691,3.037,11.55l.022.025c3.171,3.8,8.791,5.9,15.854,5.894a35.328,35.328,0,0,0,12.584-2.306l-.045-1.956a37.448,37.448,0,0,1-10.836,1.8c-5.671.01-10.316-1.613-13.1-4.563l-.025-.026c-2.228-2.5-3.135-5.9-2.687-10.093l.162-1.54,27.268-.185.259-.806-27.7.195.763-2.645c.3-1.057.724-2.168,1.095-3.116l.491-1.253,27.617-.255.281-.878-27.29.259.874-1.612a25.753,25.753,0,0,1,9.211-9.888,30.782,30.782,0,0,1,25.01-3.251l1.553-2.121a29.833,29.833,0,0,0-10.333-1.5,37.1,37.1,0,0,0-19.807,5.806,29.827,29.827,0,0,0-10.773,11.484l-.578,1.128-6.081.058-.24.869,5.82-.053-.55,1.451c-.391,1.031-.766,2.046-1.07,3.125l-.687,2.427-5.445.038Z" transform="translate(-83.083 -103.282)" fill="#0b254d"/>
    </g>
    <g id="Group_162221" data-name="Group 162221" transform="translate(82.893 161.891)">
      <path id="Path_60195" data-name="Path 60195" d="M85.254,145.864l-1.432,7.544h-.929l1.432-7.544Z" transform="translate(-82.893 -145.461)" fill="#0b254d"/>
      <path id="Path_60196" data-name="Path 60196" d="M87.174,146.354l-.281,1.455h1.3l-.145.726h-1.3l-.5,2.631a4.729,4.729,0,0,0-.1.873.457.457,0,0,0,.515.515,2.455,2.455,0,0,0,.436-.034l-.044.728a2.166,2.166,0,0,1-.717.1,1.007,1.007,0,0,1-1.142-1.052,4.96,4.96,0,0,1,.112-1.018l.537-2.744h-.784l.145-.726h.773l.234-1.221Z" transform="translate(-82.091 -145.28)" fill="#0b254d"/>
      <path id="Path_60197" data-name="Path 60197" d="M89.918,145.774a16.283,16.283,0,0,1-1.477,2.653l-.637.078a19.466,19.466,0,0,0,1.1-2.62Z" transform="translate(-81.074 -145.494)" fill="#0b254d"/>
      <path id="Path_60198" data-name="Path 60198" d="M88.7,151.926a2.473,2.473,0,0,0,1.163.336.935.935,0,0,0,1.031-.884c0-.426-.19-.684-.751-1A1.619,1.619,0,0,1,89.168,149a1.783,1.783,0,0,1,1.958-1.679,2.25,2.25,0,0,1,1.131.269l-.258.7a1.949,1.949,0,0,0-.94-.245.869.869,0,0,0-.962.817c0,.392.258.637.739.906a1.707,1.707,0,0,1,1.018,1.422,1.845,1.845,0,0,1-2.071,1.78,2.373,2.373,0,0,1-1.343-.37Z" transform="translate(-80.838 -144.92)" fill="#0b254d"/>
      <path id="Path_60199" data-name="Path 60199" d="M97.021,152.553a3.727,3.727,0,0,1-1.791.426,1.951,1.951,0,0,1-2.06-2.172c0-1.635,1.209-3.481,2.955-3.481a1.408,1.408,0,0,1,1.59,1.388c0,1.421-1.6,1.8-3.6,1.768a2.242,2.242,0,0,0,.112,1.031,1.232,1.232,0,0,0,1.209.726,3.032,3.032,0,0,0,1.455-.38Zm-1.031-4.5c-.884,0-1.544.862-1.768,1.712,1.455.011,2.6-.178,2.6-1.018C96.819,148.3,96.484,148.054,95.99,148.054Z" transform="translate(-79.086 -144.92)" fill="#0b254d"/>
      <path id="Path_60200" data-name="Path 60200" d="M97.969,147.416l.47,3.089c.078.615.147,1.029.169,1.332h.033a12.347,12.347,0,0,1,.571-1.265l1.657-3.156h1.018l-3.011,5.417h-.918l-.94-5.417Z" transform="translate(-77.661 -144.886)" fill="#0b254d"/>
      <path id="Path_60201" data-name="Path 60201" d="M104.372,152.553a3.726,3.726,0,0,1-1.79.426,1.951,1.951,0,0,1-2.06-2.172c0-1.635,1.209-3.481,2.955-3.481a1.408,1.408,0,0,1,1.59,1.388c0,1.421-1.6,1.8-3.6,1.768a2.259,2.259,0,0,0,.111,1.031,1.234,1.234,0,0,0,1.21.726,3.031,3.031,0,0,0,1.454-.38Zm-1.029-4.5c-.884,0-1.544.862-1.769,1.712,1.455.011,2.6-.178,2.6-1.018C104.171,148.3,103.835,148.054,103.343,148.054Z" transform="translate(-76.363 -144.92)" fill="#0b254d"/>
      <path id="Path_60202" data-name="Path 60202" d="M104.183,152.867l.661-3.493c.134-.7.223-1.421.28-1.924h.817c-.045.38-.089.761-.145,1.174h.033a1.958,1.958,0,0,1,1.657-1.3,1.882,1.882,0,0,1,.258.022l-.18.918a1.312,1.312,0,0,0-.245-.023c-.806,0-1.523.974-1.758,2.239l-.447,2.385Z" transform="translate(-75.007 -144.92)" fill="#0b254d"/>
      <path id="Path_60203" data-name="Path 60203" d="M108.336,147.416l.537,2.92c.123.617.19,1.02.245,1.423h.023c.145-.348.3-.728.582-1.321l1.376-3.022h.985l-2.025,4.118a10.115,10.115,0,0,1-1.869,2.844,3.394,3.394,0,0,1-1.579.94l-.223-.795a3.6,3.6,0,0,0,1-.526,4.187,4.187,0,0,0,1.04-1.242.383.383,0,0,0,.034-.247l-1.087-5.092Z" transform="translate(-74.19 -144.886)" fill="#0b254d"/>
      <path id="Path_60204" data-name="Path 60204" d="M111.848,147.416l.19,3.044a13.279,13.279,0,0,1,.023,1.455h.033a12.7,12.7,0,0,1,.593-1.354l1.612-3.145h.806l.336,3.089a12.624,12.624,0,0,1,.09,1.41h.022c.145-.436.3-.851.515-1.365l1.466-3.134h.94l-2.675,5.417h-.862l-.359-2.944a13,13,0,0,1-.078-1.433h-.022c-.223.515-.381.929-.626,1.41l-1.557,2.967h-.862l-.5-5.417Z" transform="translate(-72.507 -144.886)" fill="#0b254d"/>
      <path id="Path_60205" data-name="Path 60205" d="M116.437,153.517l1.512-7.947h.929l-.672,3.492h.022a2.328,2.328,0,0,1,1.936-1.085,1.313,1.313,0,0,1,1.343,1.454,4.976,4.976,0,0,1-.089.918l-.6,3.168h-.929l.6-3.123a4.5,4.5,0,0,0,.067-.75.787.787,0,0,0-.84-.9,2.337,2.337,0,0,0-1.846,2.06l-.5,2.709Z" transform="translate(-70.468 -145.57)" fill="#0b254d"/>
      <path id="Path_60206" data-name="Path 60206" d="M124.69,152.553a3.725,3.725,0,0,1-1.79.426,1.951,1.951,0,0,1-2.06-2.172c0-1.635,1.209-3.481,2.955-3.481a1.408,1.408,0,0,1,1.59,1.388c0,1.421-1.6,1.8-3.6,1.768a2.259,2.259,0,0,0,.111,1.031,1.234,1.234,0,0,0,1.21.726,3.031,3.031,0,0,0,1.454-.38Zm-1.029-4.5c-.884,0-1.544.862-1.769,1.712,1.455.011,2.6-.178,2.6-1.018C124.489,148.3,124.153,148.054,123.661,148.054Z" transform="translate(-68.837 -144.92)" fill="#0b254d"/>
      <path id="Path_60207" data-name="Path 60207" d="M124.5,152.867l.659-3.493c.134-.7.225-1.421.281-1.924h.817c-.045.38-.089.761-.145,1.174h.033a1.957,1.957,0,0,1,1.657-1.3,1.882,1.882,0,0,1,.258.022l-.18.918a1.325,1.325,0,0,0-.245-.023c-.807,0-1.523.974-1.758,2.239l-.448,2.385Z" transform="translate(-67.481 -144.92)" fill="#0b254d"/>
      <path id="Path_60208" data-name="Path 60208" d="M130.941,152.553a3.727,3.727,0,0,1-1.791.426,1.951,1.951,0,0,1-2.06-2.172c0-1.635,1.209-3.481,2.956-3.481a1.407,1.407,0,0,1,1.588,1.388c0,1.421-1.6,1.8-3.6,1.768a2.261,2.261,0,0,0,.112,1.031,1.232,1.232,0,0,0,1.209.726,3.032,3.032,0,0,0,1.455-.38Zm-1.029-4.5c-.885,0-1.546.862-1.769,1.712,1.455.011,2.6-.178,2.6-1.018C130.739,148.3,130.4,148.054,129.912,148.054Z" transform="translate(-66.522 -144.92)" fill="#0b254d"/>
      <path id="Path_60209" data-name="Path 60209" d="M133.629,147.416l.537,2.92c.123.617.191,1.02.247,1.423h.022c.145-.348.3-.728.582-1.321l1.376-3.022h.985l-2.025,4.118a10.114,10.114,0,0,1-1.869,2.844,3.394,3.394,0,0,1-1.579.94l-.223-.795a3.6,3.6,0,0,0,1-.526,4.187,4.187,0,0,0,1.04-1.242.383.383,0,0,0,.034-.247l-1.087-5.092Z" transform="translate(-64.821 -144.886)" fill="#0b254d"/>
      <path id="Path_60210" data-name="Path 60210" d="M140.948,149.587a3.247,3.247,0,0,1-3,3.4,2.068,2.068,0,0,1-2.116-2.228,3.246,3.246,0,0,1,3-3.436A2.066,2.066,0,0,1,140.948,149.587Zm-4.154,1.142c0,.884.481,1.523,1.276,1.523,1.1,0,1.925-1.412,1.925-2.676a1.339,1.339,0,0,0-1.265-1.51C137.567,148.065,136.783,149.486,136.794,150.729Z" transform="translate(-63.284 -144.92)" fill="#0b254d"/>
      <path id="Path_60211" data-name="Path 60211" d="M145.254,147.416l-.728,3.839c-.112.6-.19,1.131-.247,1.579h-.84l.147-1.018h-.023a2.412,2.412,0,0,1-1.914,1.142c-.693,0-1.421-.336-1.421-1.568a4.952,4.952,0,0,1,.1-.906l.581-3.067h.929l-.57,3.022a3.666,3.666,0,0,0-.1.795c0,.559.236.94.873.94a2.235,2.235,0,0,0,1.758-1.982l.526-2.775Z" transform="translate(-61.656 -144.886)" fill="#0b254d"/>
      <path id="Path_60212" data-name="Path 60212" d="M147.011,147.416l.189,3.044a13.287,13.287,0,0,1,.023,1.455h.033a12.7,12.7,0,0,1,.593-1.354l1.612-3.145h.807l.336,3.089a12.9,12.9,0,0,1,.089,1.41h.022c.145-.436.3-.851.515-1.365l1.466-3.134h.94l-2.675,5.417H150.1l-.358-2.944a12.677,12.677,0,0,1-.079-1.433h-.022c-.223.515-.381.929-.626,1.41l-1.557,2.967H146.6l-.5-5.417Z" transform="translate(-59.483 -144.886)" fill="#0b254d"/>
      <path id="Path_60213" data-name="Path 60213" d="M155.044,152.867a13.979,13.979,0,0,1,.123-1.4h-.022a2.371,2.371,0,0,1-2.1,1.523,1.606,1.606,0,0,1-1.555-1.791,3.784,3.784,0,0,1,3.749-3.873,5.048,5.048,0,0,1,1.455.212l-.548,2.82a12.4,12.4,0,0,0-.236,2.508Zm.6-4.724a2.478,2.478,0,0,0-.648-.078,2.891,2.891,0,0,0-2.553,2.966c0,.6.212,1.2.929,1.2.773,0,1.691-1.007,1.96-2.452Z" transform="translate(-57.486 -144.92)" fill="#0b254d"/>
      <path id="Path_60214" data-name="Path 60214" d="M155.725,152.867l.728-3.84c.123-.6.19-1.131.258-1.577h.828l-.134,1.063h.022a2.37,2.37,0,0,1,2-1.187,1.333,1.333,0,0,1,1.377,1.51,5.217,5.217,0,0,1-.1.874l-.6,3.156h-.929l.593-3.123a3.631,3.631,0,0,0,.078-.693c0-.55-.212-.952-.851-.952a2.386,2.386,0,0,0-1.847,2.138l-.492,2.631Z" transform="translate(-55.915 -144.92)" fill="#0b254d"/>
      <path id="Path_60215" data-name="Path 60215" d="M162.432,146.354l-.28,1.455h1.3l-.145.726h-1.3l-.5,2.631a4.725,4.725,0,0,0-.1.873.456.456,0,0,0,.514.515,2.471,2.471,0,0,0,.437-.034l-.045.728a2.157,2.157,0,0,1-.715.1,1.008,1.008,0,0,1-1.143-1.052,5.056,5.056,0,0,1,.112-1.018l.537-2.744h-.784l.147-.726h.772l.236-1.221Z" transform="translate(-54.215 -145.28)" fill="#0b254d"/>
      <path id="Path_60216" data-name="Path 60216" d="M166.476,146.354l-.28,1.455h1.3l-.145.726h-1.3l-.5,2.631a4.729,4.729,0,0,0-.1.873.457.457,0,0,0,.515.515,2.482,2.482,0,0,0,.437-.034l-.045.728a2.16,2.16,0,0,1-.717.1,1.007,1.007,0,0,1-1.142-1.052,5.057,5.057,0,0,1,.112-1.018l.537-2.744h-.784l.145-.726h.773l.234-1.221Z" transform="translate(-52.717 -145.28)" fill="#0b254d"/>
      <path id="Path_60217" data-name="Path 60217" d="M171.829,149.587a3.247,3.247,0,0,1-3,3.4,2.068,2.068,0,0,1-2.116-2.228,3.247,3.247,0,0,1,3-3.436A2.066,2.066,0,0,1,171.829,149.587Zm-4.152,1.142c0,.884.481,1.523,1.276,1.523,1.1,0,1.925-1.412,1.925-2.676a1.34,1.34,0,0,0-1.265-1.51C168.448,148.065,167.664,149.486,167.676,150.729Z" transform="translate(-51.845 -144.92)" fill="#0b254d"/>
      <path id="Path_60218" data-name="Path 60218" d="M174.748,145.57l-.715,3.514h.022a2.282,2.282,0,0,1,1.9-1.107c1.187,0,1.635.985,1.635,1.947a3.59,3.59,0,0,1-3.37,3.717c-.951,0-1.668-.392-1.668-1.4a5.3,5.3,0,0,1,.09-.84l1.174-5.831Zm-1.174,5.853a2.335,2.335,0,0,0-.067.684c0,.514.291.806.873.806,1.4,0,2.25-1.668,2.25-2.866,0-.672-.292-1.3-1.031-1.3-.806,0-1.634.829-1.9,2.1Z" transform="translate(-49.682 -145.57)" fill="#0b254d"/>
      <path id="Path_60219" data-name="Path 60219" d="M180.611,152.553a3.726,3.726,0,0,1-1.79.426,1.951,1.951,0,0,1-2.06-2.172c0-1.635,1.209-3.481,2.955-3.481a1.408,1.408,0,0,1,1.59,1.388c0,1.421-1.6,1.8-3.6,1.768a2.24,2.24,0,0,0,.111,1.031,1.233,1.233,0,0,0,1.209.726,3.032,3.032,0,0,0,1.455-.38Zm-1.029-4.5c-.884,0-1.544.862-1.769,1.712,1.455.011,2.6-.178,2.6-1.018C180.41,148.3,180.074,148.054,179.582,148.054Z" transform="translate(-48.123 -144.92)" fill="#0b254d"/>
    </g>
    <g id="Group_162222" data-name="Group 162222" transform="translate(246.084 152.22)">
      <path id="Path_60220" data-name="Path 60220" d="M201.975,138.705H211c4.344,0,6.83,2.634,6.83,6.636,0,3.9-2.486,6.662-6.83,6.662h-4.842v4.159h-4.187Zm8.347,9.742c2.146,0,3.193-1.132,3.193-3.107,0-2.028-1.047-3.081-3.193-3.081h-4.161v6.187Z" transform="translate(-201.975 -138.442)" fill="#ae0721"/>
      <path id="Path_60221" data-name="Path 60221" d="M222.785,138.513l9.5,17.719h-4.737l-1.413-2.949h-6.8l-1.387,2.949h-4.606Zm1.779,11.48-1.857-3.9-1.832,3.9Z" transform="translate(-197.766 -138.513)" fill="#0b254d"/>
      <path id="Path_60222" data-name="Path 60222" d="M232.634,150.316l-7.38-11.611h5.024l4.5,7.556,4.58-7.556h4.788l-7.328,11.611v5.845h-4.187Z" transform="translate(-193.352 -138.442)" fill="#0b254d"/>
    </g>
  </g>
</svg>
